<svg xmlns="http://www.w3.org/2000/svg" viewBox="0 0 512 512"><title>Map</title><g id="Map"><g id="Map-2" data-name="Map"><path d="M256,73.8247a182.1767,182.1767,0,0,0-182.1788,182.18c0,100.6,81.5624,182.1708,182.1788,182.1708,100.6092,0,182.18-81.5706,182.18-182.1708A182.1822,182.1822,0,0,0,256,73.8247Zm-50.7033,258.39a4.725,4.725,0,0,1-6.6185,4.3326L133.12,307.966a4.7211,4.7211,0,0,1-2.8386-4.3245V179.7772a4.7251,4.7251,0,0,1,6.6177-4.3326l65.5488,28.5813a4.7237,4.7237,0,0,1,2.84,4.3335V332.2147Zm89.1468-28.5732a4.7273,4.7273,0,0,1-2.83,4.3245l-65.5667,28.5813a4.7163,4.7163,0,0,1-6.61-4.3326V208.3594a4.7169,4.7169,0,0,1,2.8305-4.3335l65.5578-28.5813a4.7251,4.7251,0,0,1,6.6177,4.3326Zm89.1657,28.5732a4.7251,4.7251,0,0,1-6.6186,4.3326L311.4233,307.966a4.7129,4.7129,0,0,1-2.83-4.3245V179.7772a4.7251,4.7251,0,0,1,6.6177-4.3326L380.76,204.0259a4.7237,4.7237,0,0,1,2.8395,4.3335V332.2147Z"/></g></g></svg>